<svg xmlns="http://www.w3.org/2000/svg" width="750" height="750"><path d="M470.48 418.88a49.24 49.24 0 00-35.79 15.4l-105.22-51.52a45 45 0 000-14.6l105.07-51c16.299 17.197 42.515 20.393 62.468 7.616 19.954-12.777 28.02-37.925 19.22-59.924-8.8-22-31.984-34.647-55.245-30.139-23.26 4.509-40.04 24.903-39.983 48.597a49.78 49.78 0 00.58 7.21l-105.07 51a49.43 49.43 0 10-.12 67.93l105.22 51.52c-3.1 20.432 6.845 40.635 24.927 50.642 18.082 10.006 40.482 7.702 56.148-5.776 15.666-13.478 21.29-35.282 14.096-54.655-7.194-19.374-25.685-32.224-46.351-32.211"/></svg>